# xmcd CD database file
#
# Track frame offsets:
#	150
#	16281
#	34714
#	50274
#	61511
#	77956
#	91928
#	112598
#	122157
#	139410
#	155522
#	176353
#
# Disc length: 2604 seconds
#
# Revision: 2
# Processed by: cddbd v1.4PL0 Copyright (c) Steve Scherf et al.
# Submitted via: CDex 1.40Release
#
DISCID=8b0a2a0c
DTITLE=Dave Kelly - When the Blues Come To Call
DYEAR=1994
DGENRE=Blues
TTITLE0=You can't Judge A Book By The Cover
TTITLE1=The Duisberg Blues
TTITLE2=Let's Talk It Over
TTITLE3=Jim Canaan
TTITLE4=32-20
TTITLE5=Hoodoo Lady
TTITLE6=The River
TTITLE7=Oklahoma
TTITLE8=She's Funny That Way
TTITLE9=No More Doggin'
TTITLE10=When the Blues Come To Call
TTITLE11=Rooster Blues
EXTD=YEAR: 1994 ID3G: 0
EXTT0=
EXTT1=
EXTT2=
EXTT3=
EXTT4=
EXTT5=
EXTT6=
EXTT7=
EXTT8=
EXTT9=
EXTT10=
EXTT11=
PLAYORDER=
